<svg width="166" height="166" viewBox="0 0 166 166" fill="none" xmlns="http://www.w3.org/2000/svg">
<circle cx="83" cy="83" r="82.5" fill="black" stroke="black"/>
<g clip-path="url(#clip0_4_9)">
<path d="M42.332 58.3133C44.0782 52.6929 45.7941 47.0604 47.5946 41.458C48.1746 39.6428 48.8573 37.8457 49.6851 36.133C52.271 30.7598 56.9656 28.5708 62.7296 30.9649C72.3545 34.9571 82.1182 38.8649 91.151 43.9908C110.757 55.0991 126.865 70.3201 140.175 88.478C140.707 89.2017 141.178 89.9615 142 91.1857C136.762 95.4312 131.704 99.8275 126.327 103.79C123.034 106.214 118.926 105.092 116.304 101.504C110.401 93.4351 103.754 86.0658 96.1476 79.5649C83.6771 68.915 69.5208 61.2502 54.0111 56.0579C49.9147 54.689 46.0841 55.3945 42.3381 58.3133H42.332Z" fill="white"/>
<path d="M38.0423 102.608C38.0423 99.0315 37.9275 96.2695 38.0665 93.5196C38.3202 88.5082 38.6344 83.5029 39.0755 78.5035C39.6011 72.6238 43.4377 69.8196 49.0688 71.3875C73.6475 78.2503 92.3412 92.8321 105.489 114.602C105.839 115.181 106.038 115.851 106.564 117.063C99.7185 119.988 93.1086 123.111 86.2691 125.62C82.8796 126.862 80.1426 124.824 78.1366 121.911C71.1642 111.798 61.9563 104.495 50.537 99.8757C46.0237 98.0545 42.0058 97.8615 38.0483 102.596L38.0423 102.608Z" fill="white"/>
<path d="M70.8561 76.5918C64.6812 74.1133 58.2103 71.4357 51.6789 68.921C48.4525 67.6787 45.1113 66.9792 41.9091 69.2828C40.5376 62.987 46.0539 57.1916 52.1804 58.6329C56.6333 59.6822 60.8808 61.6301 65.1827 63.2764C65.7144 63.4815 66.1736 64.2232 66.4032 64.8202C67.9861 68.8969 69.5027 72.9916 70.8561 76.5858V76.5918Z" fill="white"/>
</g>
<rect x="38.5" y="30.5" width="103" height="95" stroke="black"/>
<defs>
<clipPath id="clip0_4_9">
<rect x="38" y="30" width="104" height="96" fill="white"/>
</clipPath>
</defs>
</svg>
